#!OML:ASF E:\acrobat2\Project_11_07_03\Capture day 1\Session 1\Acrobat.ASF
:FULLY-SPECIFIED
:DEGREES
17
root 5.93915 17.9368 -23.502 1.7595 78.2623 -2.65453
lowerback -4.44043 -6.79683 -4.57182
upperback 1.31808 -8.95555 3.67505
thorax 5.15305 -4.64763 5.49594
lowerneck 11.5434 -23.9028 -10.0484
upperneck -2.14885 -32.7374 11.75
head 1.11938 -16.6647 4.57337
rclavicle 4.58696e-014 -7.95139e-015
rhumerus -32.0948 10.7675 -81.1322
rradius 24.8133
rwrist 0.376063
rhand -4.88279 -42.9391
rfingers 7.12502
rthumb 20.906 -71.8326
lclavicle 4.58696e-014 -7.95139e-015
lhumerus -39.0404 5.5283 78.1879
lradius 31.9062
lwrist 12.1365
lhand -9.63295 -13.0076
lfingers 7.12502
lthumb 16.3371 16.3243
rfemur 0.136877 13.9378 7.74145
rtibia -0.799251
rfoot -20.1819 -32.0762
rtoes -2.96124
lfemur 7.98686 -5.57856 -7.842
ltibia -0.247483
lfoot -30.0943 1.20193
ltoes 48.0673
18
root 5.9387 17.9357 -23.501 -0.0651435 78.2577 -4.42756
lowerback -4.334 -6.7755 -4.14538
upperback 1.33722 -8.95424 3.71509
thorax 5.0517 -4.63235 5.31752
lowerneck 11.6082 -23.7696 -10.1658
upperneck -2.10739 -32.5815 12.0588
head 1.17621 -16.597 4.66454
rclavicle -2.05245e-014 -2.06736e-014
rhumerus -32.067 10.1882 -80.9416
rradius 24.3997
rwrist 0.519207
rhand -4.90492 -42.6463
rfingers 7.12502
rthumb 20.8848 -71.5421
lclavicle -2.05245e-014 -2.06736e-014
lhumerus -38.9645 5.36326 78.0359
lradius 32.0942
lwrist 11.9604
lhand -9.62358 -13.2059
lfingers 7.12502
lthumb 16.3461 16.1253
rfemur 0.250733 13.9729 8.25336
rtibia -0.808276
rfoot -20.097 -32.1934
rtoes -3.81884
lfemur 8.07656 -5.48496 -7.37888
ltibia -0.232379
lfoot -29.9553 1.22626
ltoes 48.1869
19
root 5.93839 17.9364 -23.491 1.61051 78.1866 -2.78932
lowerback -4.41315 -6.78805 -4.56327
upperback 1.28119 -8.94287 3.62888
thorax 5.08766 -4.63801 5.45051
lowerneck 11.7089 -23.7082 -10.2394
upperneck -2.11273 -32.5147 12.2694
head 1.19969 -16.5722 4.7334
rclavicle 3.47376e-014 2.18663e-014
rhumerus -32.1051 10.009 -80.9098
rradius 24.0556
rwrist 0.356661
rhand -5.07559 -43.0111
rfingers 7.12502
rthumb 20.7208 -71.9249
lclavicle 3.47376e-014 2.18663e-014
lhumerus -38.8736 5.31991 77.9321
lradius 32.2516
lwrist 12.1293
lhand -9.72372 -13.1439
lfingers 7.12502
lthumb 16.2497 16.1951
rfemur 0.153767 14.2774 7.86551
rtibia -0.851133
rfoot -20.3089 -32.392
rtoes -3.72569
lfemur 8.00234 -5.52434 -7.74774
ltibia -0.214017
lfoot -30.098 1.2862
ltoes 48.1832
20
root 5.94083 17.9373 -23.4841 3.25989 78.1388 -1.15258
lowerback -4.49248 -6.79918 -4.99403
upperback 1.24215 -8.92908 3.56546
thorax 5.14719 -4.64415 5.61359
lowerneck 11.8101 -23.711 -10.2272
upperneck -2.13941 -32.5196 12.3928
head 1.19698 -16.5812 4.77441
rclavicle -1.0302e-013 3.22031e-014
rhumerus -32.2824 9.6494 -80.7493
rradius 23.9747
rwrist 0.509013
rhand -4.95228 -43.159
rfingers 7.12502
rthumb 20.8393 -72.0598
lclavicle -1.0302e-013 3.22031e-014
lhumerus -38.7738 5.2438 77.919
lradius 32.4808
lwrist 12.374
lhand -9.65752 -13.1029
lfingers 7.12502
lthumb 16.3134 16.2309
rfemur 0.115569 14.4305 7.4544
rtibia -0.886232
rfoot -20.5753 -32.3655
rtoes -2.85449
lfemur 7.97012 -5.53868 -8.13232
ltibia -0.226146
lfoot -30.1798 1.35876
ltoes 48.1158
21
root 5.94509 17.9364 -23.4905 1.58424 78.2038 -2.74834
lowerback -4.39578 -6.77337 -4.52111
upperback 1.2688 -8.92378 3.57761
thorax 5.04667 -4.62499 5.37955
lowerneck 11.8269 -23.7612 -10.023
upperneck -2.12422 -32.5589 12.386
head 1.17268 -16.6019 4.75992
rclavicle -9.98893e-015 4.57205e-014
rhumerus -32.4916 8.97883 -80.5407
rradius 23.8611
rwrist 0.958965
rhand -4.79921 -42.8705
rfingers 7.12502
rthumb 20.9863 -71.7551
lclavicle -9.98893e-015 4.57205e-014
lhumerus -38.656 5.12572 77.8056
lradius 32.6531
lwrist 12.3561
lhand -9.44909 -13.3157
lfingers 7.12502
lthumb 16.5141 16.0015
rfemur 0.30703 14.2105 7.87292
rtibia -0.909493
rfoot -20.5121 -32.1683
rtoes -2.42522
lfemur 8.11889 -5.46082 -7.7553
ltibia -0.259079
lfoot -30.0122 1.33507
ltoes 48.1347
22
root 5.95012 17.9321 -23.507 -3.37251 78.2834 -7.56368
lowerback -4.12357 -6.74387 -3.23356
upperback 1.32835 -8.96235 3.72917
thorax 4.78204 -4.60276 4.86259
lowerneck 11.7371 -23.813 -9.83377
upperneck -2.01649 -32.6032 12.2679
head 1.17548 -16.618 4.70046
rclavicle -4.20927e-014 -8.74653e-015
rhumerus -32.6969 8.25784 -80.3099
rradius 23.7463
rwrist 1.34578
rhand -4.79349 -42.9723
rfingers 7.12502
rthumb 20.9918 -71.8563
lclavicle -4.20927e-014 -8.74653e-015
lhumerus -38.5471 5.06235 77.7036
lradius 32.7676
lwrist 12.3176
lhand -9.64588 -13.3738
lfingers 7.12502
lthumb 16.3246 15.9591
rfemur 0.656398 13.6898 9.08991
rtibia -0.918728
rfoot -20.0386 -31.8812
rtoes -2.91332
lfemur 8.41654 -5.39583 -6.64401
ltibia -0.31315
lfoot -29.7944 1.20862
ltoes 48.2964
23
root 5.95507 17.9359 -23.5005 0.508244 78.2507 -3.78461
lowerback -4.3546 -6.78111 -4.0931
upperback 1.23312 -8.95741 3.58227
thorax 4.92299 -4.6248 5.15511
lowerneck 11.7842 -23.7997 -9.86651
upperneck -2.03328 -32.5908 12.2737
head 1.16813 -16.6131 4.71198
rclavicle -2.86747e-014 1.86858e-014
rhumerus -32.8048 7.83279 -80.0134
rradius 23.5894
rwrist 1.65684
rhand -4.81288 -43.0213
rfingers 7.12502
rthumb 20.9732 -71.9073
lclavicle -2.86747e-014 1.86858e-014
lhumerus -38.4754 5.18587 77.6832
lradius 32.9072
lwrist 12.3254
lhand -9.96303 -13.2842
lfingers 7.12502
lthumb 16.0192 16.0736
rfemur 0.455271 13.9742 8.09969
rtibia -0.949165
rfoot -20.6101 -31.8778
rtoes -1.47053
lfemur 8.22362 -5.5313 -7.60656
ltibia -0.272388
lfoot -30.0579 1.25814
ltoes 48.1997
24
root 5.95801 17.935 -23.5062 -0.775077 78.2522 -5.01485
lowerback -4.23884 -6.82013 -3.80442
upperback 1.21677 -9.03097 3.69427
thorax 4.8231 -4.65262 5.121
lowerneck 11.9362 -23.7844 -9.96438
upperneck -2.18619 -32.5818 12.3891
head 1.1328 -16.6168 4.77486
rclavicle -1.56543e-014 1.90833e-014
rhumerus -32.8734 7.8668 -79.8058
rradius 23.3994
rwrist 1.72228
rhand -4.91855 -42.7379
rfingers 7.12502
rthumb 20.8717 -71.6352
lclavicle -1.56543e-014 1.90833e-014
lhumerus -38.4237 5.36149 77.7024
lradius 33.0812
lwrist 12.3331
lhand -10.0306 -13.2031
lfingers 7.12502
lthumb 15.9542 16.1598
rfemur 0.558018 13.9296 8.41221
rtibia -0.9189
rfoot -20.8888 -31.6738
rtoes -0.530356
lfemur 8.333 -5.58989 -7.37095
ltibia -0.282864
lfoot -30.0885 1.29473
ltoes 48.0038
25
root 5.96003 17.9332 -23.5101 -2.34303 78.21 -6.54251
lowerback -4.14567 -6.81437 -3.43085
upperback 1.21628 -9.04656 3.78408
thorax 4.72768 -4.64894 5.02129
lowerneck 11.8672 -23.8267 -9.96659
upperneck -2.17067 -32.6362 12.4159
head 1.15798 -16.6426 4.76555
rclavicle 2.11706e-014 -3.65764e-014
rhumerus -33.0983 7.75093 -79.693
rradius 23.4181
rwrist 1.7658
rhand -5.16612 -42.8151
rfingers 7.12502
rthumb 20.6338 -71.7384
lclavicle 2.11706e-014 -3.65764e-014
lhumerus -38.3124 5.47451 77.669
lradius 33.1519
lwrist 12.1633
lhand -9.95416 -13.3072
lfingers 7.12502
lthumb 16.0278 16.0498
rfemur 0.626089 13.7928 8.81306
rtibia -0.904131
rfoot -20.5075 -31.7024
rtoes -1.90438
lfemur 8.45516 -5.67042 -7.04602
ltibia -0.319331
lfoot -30.1514 1.5837
ltoes 47.6857
26
root 5.95886 17.9325 -23.5061 -3.0641 78.1278 -7.33763
lowerback -4.17473 -6.77309 -3.27755
upperback 1.17528 -8.9994 3.84078
thorax 4.68048 -4.62006 5.00171
lowerneck 11.9294 -23.5551 -10.3077
upperneck -1.97009 -32.337 12.8029
head 1.29295 -16.5028 4.88683
rclavicle 2.91716e-014 -3.65764e-014
rhumerus -33.3284 7.38556 -79.5485
rradius 23.4188
rwrist 1.90913
rhand -5.26359 -43.1615
rfingers 7.12502
rthumb 20.5401 -72.0949
lclavicle 2.91716e-014 -3.65764e-014
lhumerus -38.2395 5.32834 77.707
lradius 33.2641
lwrist 12.1911
lhand -10.0296 -13.431
lfingers 7.12502
lthumb 15.9552 15.9319
rfemur 0.560323 14.0798 9.06514
rtibia -0.911816
rfoot -20.7656 -31.7944
rtoes -1.66188
lfemur 8.39324 -5.46815 -6.76086
ltibia -0.296288
lfoot -30.0015 1.7962
ltoes 47.3275
27
root 5.95651 17.932 -23.4995 -3.91306 78.0541 -8.25915
lowerback -4.1721 -6.75427 -3.14116
upperback 1.12549 -8.98211 3.91005
thorax 4.6148 -4.60653 5.0052
lowerneck 11.8879 -23.7358 -10.2773
upperneck -2.02851 -32.5692 12.8148
head 1.30427 -16.6182 4.86519
rclavicle -1.96797e-014 3.18055e-014
rhumerus -33.4311 7.09519 -79.4097
rradius 23.2662
rwrist 2.03347
rhand -5.28817 -43.163
rfingers 7.12502
rthumb 20.5165 -72.0989
lclavicle -1.96797e-014 3.18055e-014
lhumerus -38.2433 5.05969 77.7825
lradius 33.4902
lwrist 12.3721
lhand -10.2982 -13.2784
lfingers 7.12502
lthumb 15.6965 16.105
rfemur 0.568305 14.7082 9.3968
rtibia -0.879643
rfoot -22.54 -31.3069
rtoes 3.84277
lfemur 8.31378 -5.08674 -6.38457
ltibia -0.224962
lfoot -29.6944 1.54453
ltoes 47.4429
28
root 5.95892 17.9327 -23.4938 -4.1341 78.0056 -8.4608
lowerback -4.17354 -6.743 -3.10646
upperback 1.11807 -8.96803 3.89487
thorax 4.59805 -4.59781 4.9726
lowerneck 11.933 -23.6486 -10.3279
upperneck -2.00272 -32.4646 13.0707
head 1.34495 -16.5742 4.93727
rclavicle -1.87852e-014 1.74931e-014
rhumerus -33.4801 6.56488 -79.2099
rradius 23.1041
rwrist 2.30146
rhand -5.31048 -42.751
rfingers 7.12502
rthumb 20.4951 -71.6892
lclavicle -1.87852e-014 1.74931e-014
lhumerus -38.2129 4.93204 77.7434
lradius 33.6586
lwrist 12.3118
lhand -10.3086 -13.1871
lfingers 7.12502
lthumb 15.6865 16.1971
rfemur 0.59133 14.5697 9.52111
rtibia -0.93355
rfoot -21.4122 -31.7709
rtoes 0.383897
lfemur 8.35858 -4.90285 -6.25944
ltibia -0.203958
lfoot -29.5698 1.3103
ltoes 47.7381
29
root 5.96259 17.9341 -23.4913 -3.95099 77.9946 -8.25584
lowerback -4.179 -6.74228 -3.14457
upperback 1.09855 -8.96465 3.89264
thorax 4.58589 -4.59669 4.99197
lowerneck 11.9209 -23.6478 -10.2846
upperneck -2.05609 -32.4533 13.089
head 1.32587 -16.5694 4.94266
rclavicle -1.68967e-014 1.74931e-014
rhumerus -33.54 6.07505 -78.9069
rradius 22.9948
rwrist 2.61699
rhand -5.14985 -42.4172
rfingers 7.12502
rthumb 20.6494 -71.3388
lclavicle -1.68967e-014 1.74931e-014
lhumerus -38.2059 4.77061 77.8465
lradius 33.8506
lwrist 12.5079
lhand -10.266 -13.288
lfingers 7.12502
lthumb 15.7275 16.093
rfemur 0.57832 14.2788 9.48326
rtibia -0.916452
rfoot -20.4021 -32.0602
rtoes -2.70001
lfemur 8.39176 -4.81931 -6.27324
ltibia -0.199814
lfoot -29.488 1.17272
ltoes 48.1022
